<svg xmlns="http://www.w3.org/2000/svg" viewBox="0 0 750 500"><g id="freepik--character-4--inject-6"><path d="M557.74,190.33c-2.46-2.74-5.46-5.34-6.27-8.93-.74-3.3.49-7-1.19-10-2.08-3.61-7.41-4-9.92-7.34-1.22-1.61-1.61-3.72-2.81-5.34-2-2.76-5.94-3.44-9.36-3s-6.68,1.68-10.11,2c-4.7.39-9.57-1.07-14.07.34-5,1.55-7.95,6-11.14,10.32l-4.16,5a18.76,18.76,0,0,1-2.78,2.33c-1.76,1.17-3.79,2-5.3,3.48a8.32,8.32,0,0,0,.71,12,8.9,8.9,0,0,0-5.88,8.82,25.86,25.86,0,0,0,1.69,6c.65,2,1.06,4.2.25,6.13s-3.24,3.28-5.07,2.27a9.4,9.4,0,0,0,5.19,6.18,5.62,5.62,0,0,1-3.75,1.72c3.94,8.91,14.39,13.47,24.13,13.38s19-3.92,28-7.68l26.12-7.2c2.3-.56,3.21-3.37,3.14-5.73s-.7-4.81.11-7c1.12-3,4.61-4.7,5.77-7.72C562.35,196.85,560.2,193.07,557.74,190.33Z" style="fill:#263238"></path><path d="M520.08,162.27l-1.44-.06c-15.61.24-24.12,13.63-23.45,29.22l-.58,53.7a18.26,18.26,0,0,0,17.11,18.43h0a18.26,18.26,0,0,0,19.4-17.36c.14-2.82.24-4.8.25-4.8s15.06-1.68,15.89-16.63c.4-7.22,0-22.16-.5-35.68A27.89,27.89,0,0,0,520.08,162.27Z" style="fill:#ffbe9d"></path><path d="M531.37,241.4a36.18,36.18,0,0,1-19.23-6.59s4,11.12,19,10.41Z" style="fill:#eb996e"></path><path d="M540.49,201.05a2.14,2.14,0,0,1-2.15,2.07,2,2,0,0,1-2.12-2,2.14,2.14,0,0,1,2.15-2.07A2,2,0,0,1,540.49,201.05Z" style="fill:#263238"></path><path d="M543.3,195.16c-.28.27-1.84-1-4.14-1.09s-4,1-4.27.69c-.12-.13.17-.62.93-1.12a5.84,5.84,0,0,1,3.43-.9,5.63,5.63,0,0,1,3.28,1.22C543.22,194.53,543.43,195,543.3,195.16Z" style="fill:#263238"></path><path d="M518.68,201.05a2.15,2.15,0,0,1-2.16,2.07,2.06,2.06,0,0,1-2.12-2,2.15,2.15,0,0,1,2.16-2.06A2,2,0,0,1,518.68,201.05Z" style="fill:#263238"></path><path d="M520.74,195.13c-.28.26-1.85-1-4.14-1.1s-4,1-4.27.7c-.12-.13.17-.63.93-1.13a5.94,5.94,0,0,1,3.43-.9,5.67,5.67,0,0,1,3.29,1.22C520.66,194.49,520.88,195,520.74,195.13Z" style="fill:#263238"></path><path d="M528.23,213.14a15.5,15.5,0,0,1,3.76-.51c.59,0,1.15-.13,1.27-.52a3,3,0,0,0-.32-1.76l-1.54-4.55c-2.14-6.46-3.66-11.77-3.4-11.85s2.21,5.09,4.34,11.55q.78,2.4,1.47,4.57a3.36,3.36,0,0,1,.21,2.32,1.5,1.5,0,0,1-1,.82,4.19,4.19,0,0,1-1,.09C529.68,213.33,528.23,213.28,528.23,213.14Z" style="fill:#263238"></path><path d="M521.4,214.44c.37,0,.27,2.49,2.33,4.36s4.72,1.7,4.73,2c0,.16-.61.46-1.74.44a6.21,6.21,0,0,1-4-1.57,5.41,5.41,0,0,1-1.8-3.64C520.92,215,521.22,214.42,521.4,214.44Z" style="fill:#263238"></path><path d="M521,185.79c-.26.62-2.54.22-5.25.43s-4.93.85-5.26.28c-.15-.28.26-.85,1.16-1.42a8.83,8.83,0,0,1,3.94-1.19,8.58,8.58,0,0,1,4.06.66C520.65,185,521.13,185.5,521,185.79Z" style="fill:#263238"></path><path d="M542.68,187.48c-.43.5-2-.11-3.89-.21s-3.54.2-3.88-.36c-.15-.28.12-.79.85-1.25a5.29,5.29,0,0,1,3.2-.72,5.42,5.42,0,0,1,3.06,1.18C542.67,186.69,542.87,187.23,542.68,187.48Z" style="fill:#263238"></path><path d="M495.94,202.56c-.25-.12-10.15-3.48-10.26,6.76s10.19,8.24,10.21,7.94S495.94,202.56,495.94,202.56Z" style="fill:#ffbe9d"></path><path d="M492.81,213.35c-.05,0-.18.12-.49.26a1.76,1.76,0,0,1-1.33,0c-1.08-.41-2-2.14-2-4a5.82,5.82,0,0,1,.53-2.55,2.06,2.06,0,0,1,1.35-1.36.9.9,0,0,1,1.05.5c.14.29.07.5.12.51s.22-.16.15-.59a1.11,1.11,0,0,0-.4-.64,1.33,1.33,0,0,0-1-.28,2.52,2.52,0,0,0-1.88,1.57,6,6,0,0,0-.65,2.85c0,2.06,1.07,4,2.55,4.45a1.91,1.91,0,0,0,1.63-.25C492.78,213.6,492.84,213.37,492.81,213.35Z" style="fill:#eb996e"></path><path d="M495.6,172.54a21.48,21.48,0,0,1,6.66-7.34,30.74,30.74,0,0,1,9.85-5.57,22.51,22.51,0,0,1,17.3,1,13.36,13.36,0,0,1,4.89,4.17c3.67,2.28,7.32,6.53,5.87,7.33l-2-2.15s-.88,1.83-4.59,4.64a1.78,1.78,0,0,1-.27.17,5.08,5.08,0,0,1-1.07.6l-.21.13c-4.37,1.46-7.21.87-11.56-.65-3-1-5.75-2.76-8.67-4a10.63,10.63,0,0,0-7,2.61,6.56,6.56,0,0,0-.84.84,6.13,6.13,0,0,0-.73,5.11c.4,1.74,1.2,3.35,1.7,5.06.91,3.14.77,6.48.62,9.74-.21,4.6-.47,9.39-2.73,13.39-1,1.88-3.35,3.75-5.22,1.75a4.33,4.33,0,0,1-1.06-3.13c.13-3.12-2.61-4.56-4-6.82A12.33,12.33,0,0,1,491,193.1,40.25,40.25,0,0,1,495.6,172.54Z" style="fill:#263238"></path><path d="M495.94,244.13s12.31,11.42,22.23,11.36,12.3-5.26,12.3-5.26l5.59,7.11s.52,46.39,1.14,47.19-5.83,4.85-5.83,4.85l-32.92-47.25Z" style="fill:#E7BB41"></path><path d="M565.66,414.55s4.66-1.53,5.93-5.85-2.21-47.5-2.21-47.5l-2.62-2.6,2-1.61V343.28L564.1,314.4s-4.59-39.67-10.16-42.51l-8.64,39.28,6.35,92.12Z" style="fill:#ebebeb"></path><path d="M530.47,250.23h0l.65-4c1.5,1.17,5.48,7.4,5.48,7.4,5.47,4.62,16.88,16.3,18.95,20.87,3,6.49,3.25,36.28,3.25,36.28l-1.46,147.34-98.54.15,1.59-66.75,3.13-131.69,24.19-12.17,6.48-7.13,40.75,66.41-.29-44.72A19.58,19.58,0,0,0,530.47,250.23Z" style="fill:#ebebeb"></path><path d="M426.56,371.05a21.72,21.72,0,0,1-1.44-16.19c5.54-18.52,22.78-75.84,25.92-83,3.45-7.83,13.28-12.49,13.28-12.49l15.13,39.74-3.85,18.52-13.86,39.58h0l40.56,47.45-29,23.84s-43.71-51.7-46.66-57.31Z" style="fill:#ebebeb"></path><path d="M533,409.06c-.31-.11-10.6,1.75-12.55,1.24a65.63,65.63,0,0,0-11-2.06c-4.73-.41-9.92-1.28-9.92-1.28l-20,16.46,8.23,2.92a30.84,30.84,0,0,0,12.65-1.44c7.41-2.26,19.44-8.43,19.44-8.43a46.76,46.76,0,0,0,8.23-.41C531.57,415.44,537.33,410.71,533,409.06Z" style="fill:#ffbe9d"></path><path d="M536.58,458.24a1.79,1.79,0,0,1,0-.4l0-1.19v-4.54c0-4,.06-9.69.1-16.73.1-14.12.34-33.63.3-55.18,0-10.77-.12-21-.3-30.37-.1-4.67-.2-9.11-.3-13.26s-.36-8-.52-11.53c-.3-7-.55-12.74-.72-16.71-.07-1.95-.13-3.48-.17-4.55,0-.5,0-.89,0-1.18a1.55,1.55,0,0,1,0-.4s0,.13,0,.4,0,.68.08,1.18c.07,1.06.16,2.59.27,4.54.21,4,.52,9.67.89,16.7.18,3.53.37,7.39.59,11.54s.22,8.59.34,13.26c.2,9.33.32,19.6.34,30.38,0,21.55-.26,41.06-.45,55.18-.11,7-.2,12.75-.27,16.73,0,1.95-.07,3.48-.09,4.54,0,.5,0,.9,0,1.19A2.12,2.12,0,0,1,536.58,458.24Z" style="fill:#263238"></path><path d="M487.71,247.63a2.49,2.49,0,0,1,.34.44l.91,1.34c.8,1.21,1.93,2.92,3.35,5.05l11.53,17.66-.14-.11,8.64,2.16.31.08-.14.29c-1,1.89-2,3.87-3,5.88-.15.31-.31.62-.46.9l0-.27L528,305.63c2.37,3.12,4.3,5.66,5.67,7.45l1.52,2,.38.54c.09.12.13.19.12.2a.84.84,0,0,1-.16-.17l-.43-.5-1.59-2-5.8-7.36-19.07-24.49-.1-.13.08-.14c.14-.29.3-.6.46-.91l3-5.88.16.37-8.63-2.18-.1,0-.05-.08-11.38-17.76-3.23-5.13-.84-1.37A3.75,3.75,0,0,1,487.71,247.63Z" style="fill:#263238"></path><path d="M535.64,315.86a3.19,3.19,0,0,1,.22-.67c.15-.43.43-1,.71-1.87.59-1.63,1.35-4,2.17-7,1.63-6,3.49-14.48,5.12-24l0,.17-.76-1.23-4.08-6.66-.32-.52.59.14,4.85,1.17-.29.31c-2.15-6.42-4-11.92-5.32-15.87l-1.48-4.58L536.7,254a.22.22,0,1,1,.08,0c.12.32.26.71.45,1.2.39,1.11.94,2.63,1.61,4.53,1.37,3.94,3.28,9.42,5.5,15.82l.15.41-.43-.1-4.85-1.14.27-.38c1.32,2.13,2.69,4.36,4.1,6.65l.76,1.23,0,.09,0,.09a237.94,237.94,0,0,1-5.28,24c-.87,3-1.69,5.39-2.34,7-.3.82-.61,1.42-.79,1.84A6.1,6.1,0,0,1,535.64,315.86Z" style="fill:#263238"></path><path d="M563.91,396.18s-7.45.5-9.81,1.58-4,4.73-5.88,6.24-4.67,2.26-4,4.14a4.41,4.41,0,0,0,5.59,2.32,51.31,51.31,0,0,0,5.17-2.32h11.83s2.37-9.36,2.59-9.22S566.05,396.17,563.91,396.18Z" style="fill:#ffbe9d"></path><path d="M558.27,295.82c.14,0,.26,22.58.26,50.43s-.12,50.44-.26,50.44-.26-22.58-.26-50.44S558.12,295.82,558.27,295.82Z" style="fill:#263238"></path><path d="M448.89,399.33s.17.16.46.5l1.32,1.52c1.15,1.37,2.83,3.34,5,5.85,4.28,5.09,10.41,12.36,17.84,21.2l-.29,0,28.95-23.88,0,.37-9.34-10.92-31.19-36.56-.08-.1,0-.12c4.21-11.88,7.7-21.76,10.15-28.69l2.87-8,.77-2.09c.18-.48.28-.72.28-.72s-.06.26-.22.74-.4,1.21-.7,2.12c-.65,1.87-1.58,4.59-2.76,8l-10,28.75,0-.22,31.25,36.51,9.33,10.92.17.2-.2.17-29,23.81-.16.13-.13-.16-17.71-21.32-4.87-5.92-1.27-1.56C449,399.52,448.89,399.33,448.89,399.33Z" style="fill:#263238"></path><path d="M457.46,264.83a1.24,1.24,0,0,1,.42,0c.28,0,.69,0,1.22,0a24.21,24.21,0,0,1,4.44.59,26.42,26.42,0,0,1,20,19.78,23.47,23.47,0,0,1,.65,4.43c0,.53,0,.94,0,1.22a1.24,1.24,0,0,1,0,.42,12.38,12.38,0,0,1-.18-1.62,29.9,29.9,0,0,0-.8-4.36,26.92,26.92,0,0,0-19.76-19.51,28.57,28.57,0,0,0-4.36-.75A11.65,11.65,0,0,1,457.46,264.83Z" style="fill:#263238"></path><path d="M446.12,360.2a7.27,7.27,0,0,1,2-1.35A17.69,17.69,0,0,1,459.33,357a6.87,6.87,0,0,1,2.3.65,22.32,22.32,0,0,0-15.51,2.56Z" style="fill:#263238"></path><polygon points="557.83 408.14 567.8 408.14 555.35 445.51 551.65 419.43 557.83 408.14" style="fill:#ebebeb"></polygon><path d="M555,408.14a4.77,4.77,0,0,1,.92-.07l2.61-.06,9.31-.09h.31l-.1.3c-1.21,3.67-2.64,8-4.16,12.61-2.28,6.84-4.37,13-5.91,17.49l-1.85,5.29-.53,1.42a2.17,2.17,0,0,1-.21.49,1.84,1.84,0,0,1,.11-.52l.44-1.46c.42-1.33,1-3.14,1.69-5.33,1.45-4.5,3.48-10.71,5.76-17.55l4.23-12.58.22.29-9.31-.09-2.61-.06A4.77,4.77,0,0,1,555,408.14Z" style="fill:#263238"></path><path d="M558.27,396.69a4.47,4.47,0,0,1,1.16-.36,14.87,14.87,0,0,1,3.32-.4,9.65,9.65,0,0,1,4.83,1.15,9.05,9.05,0,0,1,3.75,4.76c1.55,4.14.38,8.5-1.71,10.5a9,9,0,0,1-2.79,1.84,4,4,0,0,1-1.17.37,9.19,9.19,0,0,1,1.08-.55,10.21,10.21,0,0,0,2.62-1.92c1.89-1.93,3-6.11,1.48-10.05a8.57,8.57,0,0,0-3.51-4.53,9.4,9.4,0,0,0-4.59-1.2A33,33,0,0,0,558.27,396.69Z" style="fill:#263238"></path><path d="M483,425.24a19.21,19.21,0,0,0,5.54,1.16,23.23,23.23,0,0,0,6.11-.57,55.61,55.61,0,0,0,7.23-2.24c5.06-1.88,9.65-3.56,13-4.74l3.95-1.39a9.67,9.67,0,0,1,1.48-.44,7.88,7.88,0,0,1-1.41.63L515,419.19c-3.3,1.28-7.87,3-12.93,4.89a52.12,52.12,0,0,1-7.31,2.22,22.5,22.5,0,0,1-6.23.47,14.9,14.9,0,0,1-4.12-.87,9,9,0,0,1-1.06-.45C483.07,425.33,483,425.26,483,425.24Z" style="fill:#263238"></path><path d="M485.11,457.86c-.14,0-.86-6.16-1.6-13.79s-1.23-13.83-1.09-13.84.86,6.16,1.61,13.79S485.26,457.84,485.11,457.86Z" style="fill:#263238"></path><path d="M511.79,456.61c0-.05.53-.21,1.45-.61a12.5,12.5,0,0,0,3.51-2.28,16.18,16.18,0,0,0,3.59-5.07,29.29,29.29,0,0,0,2.22-7.33,65.43,65.43,0,0,0,.76-14c-.08-1.8-.18-3.25-.25-4.25a9.73,9.73,0,0,1-.07-1.57,8.47,8.47,0,0,1,.27,1.54c.14,1,.29,2.46.42,4.26a60,60,0,0,1-.61,14.09,29.21,29.21,0,0,1-2.31,7.44A16.16,16.16,0,0,1,517,454a11.54,11.54,0,0,1-3.69,2.2,8.25,8.25,0,0,1-1.11.34A1.49,1.49,0,0,1,511.79,456.61Z" style="fill:#263238"></path><path d="M483.06,427.58c.07-.06.87,1,2.34,2.43a33.66,33.66,0,0,0,13.71,8.36c2,.63,3.25.88,3.24,1a3.43,3.43,0,0,1-.91-.09,19.5,19.5,0,0,1-2.43-.53,29.37,29.37,0,0,1-7.53-3.26,29.78,29.78,0,0,1-6.35-5.2,21.73,21.73,0,0,1-1.58-1.91A3.29,3.29,0,0,1,483.06,427.58Z" style="fill:#263238"></path><path d="M518.17,316.42a3.18,3.18,0,0,1,1.16,2.52c-.1,1.55,0,12.11,0,12.11s.39,1.55-1.16,1.55V316.42Z" style="fill:#263238"></path><rect x="515.24" y="314.7" width="3.24" height="5.3" style="fill:#263238"></rect><path d="M515.89,315.31h2v-2a1,1,0,0,0-1-1h0a1,1,0,0,0-1,1Z" style="fill:#263238"></path><path d="M490.8,319.68c0-.15,7.27-.26,16.23-.26s16.24.11,16.24.26-7.27.26-16.24.26S490.8,319.82,490.8,319.68Z" style="fill:#263238"></path><g style="opacity:0.2"><polyline points="532.87 312.27 531.37 310.85 504.05 284.73 507.04 276.17 502.3 276.17 492.8 255.49 503.64 272.25 512.28 274.42 508.8 281.2"></polyline></g><g style="opacity:0.2"><path d="M510.09,347.47a15.5,15.5,0,0,0,7.64-2.34,13.19,13.19,0,0,0,4.33-6.42,34.21,34.21,0,0,1-1.27,6.85,9.9,9.9,0,0,1-3.83,5.12c-2.12,1.32-4.77,1.46-7.26,1.26a30.41,30.41,0,0,1-9.7-2.43c-2.19-.95-4.48-2.45-4.93-4.79A30.24,30.24,0,0,0,510.09,347.47Z"></path></g></g><g id="freepik--character-2--inject-6"><path d="M243.27,191.22s-6.42,24-7,41l-.18,5.66s14.15,11.75,26,12.47l10-24.47Z" style="fill:#263238"></path><path d="M306.15,205.94c-2.71-11.7-3.75-25.32-13.48-32.95-7.22-5.66-15.44-7.24-24.61-6.85-4.51.19-9.61,2.27-13.54,4.49-5.39,3.05-7.67,9.24-10.27,14.86-5.21,11.26-4.55,26.51-1,30.75l47,24.85c9.4-4.89,15.29-6.83,16.79-19.36A46.09,46.09,0,0,0,306.15,205.94Z" style="fill:#263238"></path><path d="M291.65,182.29,262,173.55c-9.54-1.39-16.38,10.16-17.36,19.75-1.1,10.65-2,23.7-1.06,31.72,1.92,16.13,14.12,18.65,14.12,18.65s0,.24-.07,5l-.31,7.72a13.33,13.33,0,0,0,2.61,8.73c4.36,5.66,12.33,6.42,21.71,2.95,5.44-2,9.23-6.07,9.64-11.58l5.15-68.3A5.64,5.64,0,0,0,291.65,182.29Z" style="fill:#9f6b5b"></path><path d="M250.15,207.93a2.06,2.06,0,0,0,1.9,2.15,2,2,0,0,0,2.2-1.77,2,2,0,0,0-1.9-2.15A2,2,0,0,0,250.15,207.93Z" style="fill:#263238"></path><path d="M247.16,203c.24.28,1.84-.81,4.05-.72s3.79,1.26,4,1-.11-.61-.8-1.15a5.59,5.59,0,0,0-3.22-1.13,5.39,5.39,0,0,0-3.24.9C247.28,202.36,247,202.84,247.16,203Z" style="fill:#263238"></path><path d="M270.77,207.73a2.05,2.05,0,0,0,1.9,2.15,2,2,0,0,0,2.19-1.77A2,2,0,0,0,273,206,2,2,0,0,0,270.77,207.73Z" style="fill:#263238"></path><path d="M268.91,203.22c.25.28,1.85-.81,4.06-.72s3.79,1.26,4,1-.12-.61-.8-1.15a5.69,5.69,0,0,0-3.22-1.13,5.37,5.37,0,0,0-3.25.91C269,202.62,268.79,203.1,268.91,203.22Z" style="fill:#263238"></path><path d="M260.3,217.56a14.89,14.89,0,0,0-3.57-.79c-.56-.08-1.09-.21-1.17-.6a2.84,2.84,0,0,1,.44-1.66l1.84-4.24c2.56-6,4.44-11,4.19-11.1s-2.51,4.71-5.07,10.74l-1.77,4.26a3.26,3.26,0,0,0-.38,2.21,1.38,1.38,0,0,0,.89.86,3.74,3.74,0,0,0,1,.17A14.14,14.14,0,0,0,260.3,217.56Z" style="fill:#263238"></path><path d="M257.74,243.67a40.81,40.81,0,0,0,21.69-4.88s-5.75,11-21.73,8.88Z" style="fill:#774f44"></path><path d="M267.44,222a3.56,3.56,0,0,0-2.89-1.73,4.62,4.62,0,0,0-4.29,1.92,2.86,2.86,0,0,0-.27,2.07c.14.36,0,.18.29.43a8.16,8.16,0,0,0,3.22,2.18,3.5,3.5,0,0,0,3.72-1.2A3.55,3.55,0,0,0,267.44,222Z" style="fill:#774f44"></path><path d="M267.14,219.44c-.36,0-.47,2.37-2.6,4s-4.67,1.23-4.71,1.56c0,.15.55.49,1.63.57a5.9,5.9,0,0,0,3.92-1.17,5.24,5.24,0,0,0,2-3.34C267.55,220,267.31,219.44,267.14,219.44Z" style="fill:#263238"></path><path d="M268.08,195.12c.15.62,2.38.56,4.94,1.12s4.57,1.47,5,1c.18-.24-.13-.84-.92-1.5a8.81,8.81,0,0,0-7.55-1.58C268.53,194.41,268,194.83,268.08,195.12Z" style="fill:#263238"></path><path d="M247.34,197c.5.43,2.11-.33,4.14-.65s3.79-.2,4.11-.78c.14-.28-.21-.74-1-1.1a6.64,6.64,0,0,0-6.64,1.15C247.28,196.24,247.11,196.79,247.34,197Z" style="fill:#263238"></path><path d="M262.45,171.82c0,.12-.05.24-.07.35l.05,0C262.44,172.07,262.44,172,262.45,171.82Z" style="fill:#263238"></path><path d="M283.16,250.14c.45-4.2-1.24-8.42-.75-12.62.52-4.45,3.4-8.26,4.59-12.59,1.89-6.92-.71-14.28-1.66-21.43a17,17,0,0,1-10.42-6c-3.22-3.75-5.16-8.39-7.06-12.95A21.77,21.77,0,0,0,272.22,197a5.82,5.82,0,0,1-5-1.63,13,13,0,0,1-2.93-4.55A35.61,35.61,0,0,1,261.46,178a46.23,46.23,0,0,0,2.09,18.72,8,8,0,0,0-3.48.13,3.82,3.82,0,0,1-3.32-.7,4.17,4.17,0,0,1-.91-2.14,48.3,48.3,0,0,1-.53-16.31,49.09,49.09,0,0,0-3.67,9,17.46,17.46,0,0,0-.07,9.64,1.41,1.41,0,0,1-2,0,3.37,3.37,0,0,1-.88-2,25,25,0,0,1,.53-8.12c-1.6,2.84-2.13,6.14-3,9.27s-2.3,6.36-5,8.15a42.31,42.31,0,0,1,.4-12.3c.54-3.36,2.13-6.69,3.6-9.76a29,29,0,0,1,6.5-9.05c4.72-4.13,6.7-2.35,9.71-.78l.36.15a1.66,1.66,0,0,1,0-.22l.13-.64a45.28,45.28,0,0,1,23.83,1.11c5.68,1.86,12.68,7.7,15.57,12.93.05.1.11.2.17.3,6.7,12.1,11.12,26.12,11.45,56.44h0Z" style="fill:#263238"></path><path d="M295.78,288.2a4.59,4.59,0,0,1,0-1.2,20.57,20.57,0,0,1,.59-3.25,22.75,22.75,0,0,1,14.13-15.56,20.09,20.09,0,0,1,3.17-.9,5.1,5.1,0,0,1,1.2-.15c0,.1-1.68.36-4.23,1.39a23.66,23.66,0,0,0-13.91,15.32C296,286.49,295.88,288.22,295.78,288.2Z" style="fill:#263238"></path><path d="M225.52,376s-1.85,31.14,6.34,43.32l6.06-20.52V376.21Z" style="fill:#e0e0e0"></path><path d="M288.7,251.18s-17.24,13-25.64,11.56c-6.73-1.18-5.57-11.41-5.57-11.41l-3.27,7.07-7.05,28.22,3,13.29,16-9.89Z" style="fill:#E7BB41"></path><path d="M229.83,307.56c1.81-18.63,24.21-50.89,24.21-50.89l3.54-5.72-3.53,15.82s-3.51,23.09-4,23.57l19.75-19.13L292,247.7l4.39,6.3,19.49,10.8-2,61.18-7,17.93s20.58,56.34,23.25,76.31l4.45,37.87-105.07-.17s3.69-59.23,4.1-71.88S235,345.41,235,345.41,228,326.18,229.83,307.56Z" style="fill:#e0e0e0"></path><path d="M334.6,458.09a1.48,1.48,0,0,1-.06-.34c0-.26-.09-.59-.15-1l-.51-3.9c-.42-3.42-1-8.31-1.77-14.35-.37-3-.77-6.35-1.2-9.91q-.32-2.67-.66-5.52c-.22-1.9-.44-3.85-.81-5.82a257.94,257.94,0,0,0-6.66-25.35c-1.48-4.84-2.94-9.55-4.47-14s-3-8.78-4.4-12.84c-2.77-8.13-5.21-15.29-7.17-21.06l0-.06,0-.06,4.62-11.53,1.26-3.08.33-.79a1.63,1.63,0,0,1,.13-.26,1.2,1.2,0,0,1-.08.28c-.08.21-.17.47-.29.81l-1.18,3.11L307.06,344v-.12c2,5.75,4.48,12.91,7.3,21,1.4,4.06,2.88,8.36,4.43,12.84s3,9.2,4.49,14a252.2,252.2,0,0,1,6.64,25.41c.36,2,.57,4,.79,5.86s.43,3.74.63,5.52l1.14,9.92c.67,6,1.22,10.94,1.6,14.36.18,1.68.32,3,.41,3.91l.1,1A1.33,1.33,0,0,1,334.6,458.09Z" style="fill:#263238"></path><g style="opacity:0.2"><path d="M318.44,377.42s-14.2,18.34-17.56,17.76-6.69-7-6.69-7l-3.71-1.72-3.62-6.6,7.82-7Z"></path></g><path d="M250.8,261.38s-8.31,3.53-11,7.78-4.51,22.68-4.51,22.68l13.19-22.22Z" style="fill:#e0e0e0"></path><path d="M263,378.46,276,373.62l9.94-6.7,8.47,13.56-3.84,2.3s-.1,3.28-.12,3.68-1.3,3.64-11.82,3.43-13-5.55-13-5.55-5.47,6.27-7.74,7.25-4.41-2-4.41-2Z" style="fill:#9f6b5b"></path><path d="M234.76,351.21s-5,5.22-6.18,9.3-.5,15.57-.5,15.57l1.43.05s0,7.52,2.08,7.77,4.11.31,4.22-3.09a60.37,60.37,0,0,0-.95-9.35Z" style="fill:#9f6b5b"></path><path d="M244.82,458.09a2.43,2.43,0,0,1,0-.43l0-1.28c0-1.15-.07-2.8-.12-4.92-.09-4.29-.22-10.46-.37-18.08-.26-15.28-.62-36.36-1-59.64-.76-23.29-.89-44.42.39-59.66a71.06,71.06,0,0,1,3.71-17.68c.36-1,.72-1.89,1-2.64s.6-1.4.86-1.9.44-.86.58-1.14a3.05,3.05,0,0,1,.21-.38,2.94,2.94,0,0,1-.17.41c-.12.28-.3.66-.52,1.16s-.52,1.14-.82,1.91-.66,1.64-1,2.65A72.29,72.29,0,0,0,244,314.11c-1.18,15.21-1,36.34-.24,59.62.33,23.28.64,44.36.86,59.65.08,7.61.15,13.78.2,18.08,0,2.11,0,3.77,0,4.92,0,.54,0,1,0,1.27A2.12,2.12,0,0,1,244.82,458.09Z" style="fill:#263238"></path><path d="M281.52,435.78a2.14,2.14,0,0,1-.51-.18,11.53,11.53,0,0,1-1.43-.63,21.51,21.51,0,0,1-4.74-3.22,28,28,0,0,1-5.43-6.55,35.19,35.19,0,0,1-4-9.62,61.61,61.61,0,0,1-1.18-18.81c.17-2.41.38-4.35.54-5.69.08-.63.14-1.14.19-1.55a2.34,2.34,0,0,1,.11-.53,1.87,1.87,0,0,1,0,.54c0,.42-.06.93-.1,1.55-.1,1.35-.25,3.3-.37,5.7a65,65,0,0,0,1.32,18.67,35.75,35.75,0,0,0,3.88,9.5,28.77,28.77,0,0,0,5.26,6.52A28.28,28.28,0,0,0,281.52,435.78Z" style="fill:#263238"></path><path d="M250.8,261.38a4.35,4.35,0,0,1,0,.68c0,.48-.08,1.13-.14,1.95-.15,1.75-.35,4.23-.61,7.33v.08l-.07,0-2.24,1.29.09-.16c.37,5.14.85,11.67,1.4,19.08l-.32-.21,17.74-6.41,5.66-2-.16.28c-.28-2-.56-3.85-.83-5.72l-.06-.41.39.14,6.76,2.4-.28.09,13.1-18.62,3.78-5.3,1-1.41a3,3,0,0,1,.37-.46,3.53,3.53,0,0,1-.31.51c-.23.36-.55.83-.95,1.44l-3.68,5.38L278.5,280.06l-.11.15-.17-.06-6.76-2.37.33-.28c.27,1.86.55,3.77.84,5.71l0,.21-.2.07-5.67,2.05L249,291.92l-.3.11,0-.32c-.49-7.42-.93-14-1.27-19.1v-.11l.09-.05,2.26-1.26-.08.13c.32-3.11.57-5.58.75-7.32.1-.82.17-1.47.22-1.95A5.34,5.34,0,0,1,250.8,261.38Z" style="fill:#263238"></path><path d="M234.86,371.46a2.1,2.1,0,0,1,0-.46c0-.35,0-.8,0-1.37,0-1.24-.05-3-.08-5.2,0-4.52-.11-10.92-.18-18.61v.06c-1.18-4.1-2.23-8.65-3.24-13.53-.5-2.43-1-5-1.44-7.53a52.21,52.21,0,0,1-.91-8,53.73,53.73,0,0,1,3.62-21.07v0a97,97,0,0,1,5.55-12.52c1.88-3.65,3.66-6.79,5.16-9.37s2.75-4.6,3.62-6l1-1.55a3.49,3.49,0,0,1,.37-.52,5.7,5.7,0,0,1-.31.56L247,268c-.83,1.39-2,3.43-3.49,6s-3.21,5.76-5.06,9.42A99.74,99.74,0,0,0,233,295.91h0v0a53.76,53.76,0,0,0-3.54,20.86,51.58,51.58,0,0,0,.9,7.94q.69,3.87,1.42,7.52c1,4.87,2,9.42,3.17,13.5v.06c0,7.7,0,14.1,0,18.62,0,2.21,0,4,0,5.2,0,.57,0,1,0,1.37A2.77,2.77,0,0,1,234.86,371.46Z" style="fill:#263238"></path><g style="opacity:0.2"><path d="M313.08,330.78c-10.87-7.77-17.38-21.32-17.56-34.68Z"></path></g><path d="M308.2,261.31s9.28,1.81,12.94,9.76,27.91,68.11,28.38,72.34S348,353,343,358.26,300.39,390,300.39,390l-16.32-26.14L317.3,340l-21.66-44.7S297.24,264.57,308.2,261.31Z" style="fill:#e0e0e0"></path><path d="M331.15,345.92a55.83,55.83,0,0,0-6.17-3.73,58.55,58.55,0,0,0-6.79-2.44,6.88,6.88,0,0,1,2.12.27,23.15,23.15,0,0,1,4.89,1.7,22.9,22.9,0,0,1,4.4,2.72A6.42,6.42,0,0,1,331.15,345.92Z" style="fill:#263238"></path><path d="M329.92,336.43a51.24,51.24,0,0,0-6,.94,48.08,48.08,0,0,0-5.67,2.16,16.45,16.45,0,0,1,11.68-3.1Z" style="fill:#263238"></path><path d="M343,358.26a2.31,2.31,0,0,1,.22-.26l.66-.75A15.69,15.69,0,0,0,345,356a18,18,0,0,0,1.31-1.8,18.6,18.6,0,0,0,2.56-5.47,14.65,14.65,0,0,0,.55-3.73,9.53,9.53,0,0,0-.73-4.11c-4.35-11.22-10.34-26.66-17-43.71-2.58-6.24-5.07-12.26-7.42-17.92-1.16-2.83-2.3-5.57-3.38-8.2a17.07,17.07,0,0,0-5.14-6.1l0,0-18.72-10.48h0l0,0-3.76-5-1-1.3a2.94,2.94,0,0,1-.3-.46s.13.14.36.42l1,1.26,3.86,4.94,0,0L316,264.61h0a17.54,17.54,0,0,1,5.31,6.26c1.09,2.63,2.23,5.37,3.41,8.19L332.16,297c6.65,17.07,12.54,32.57,16.82,43.78a9.71,9.71,0,0,1,.72,4.25,14.6,14.6,0,0,1-.6,3.8,18.37,18.37,0,0,1-2.67,5.51,18.74,18.74,0,0,1-1.36,1.77,12.09,12.09,0,0,1-1.1,1.22l-.71.71C343.1,358.19,343,358.27,343,358.26Z" style="fill:#263238"></path><path d="M319.32,376.49a2.77,2.77,0,0,1-.32.26l-1,.73-3.75,2.74-13.78,10-.16.12-.11-.18L283.86,364l-.13-.2.19-.13,15-10.79,18.27-13.14-.08.31-15.89-32.23-4.55-9.33-1.2-2.49c-.12-.27-.22-.49-.3-.65l-.09-.23a1.12,1.12,0,0,1,.13.21l.34.63,1.26,2.46c1.11,2.18,2.69,5.32,4.68,9.26l16.07,32.15.09.19-.17.12-18.25,13.16-15,10.77.06-.33,16.28,26.17-.28-.05,13.88-9.82,3.81-2.66,1-.68A2.1,2.1,0,0,1,319.32,376.49Z" style="fill:#263238"></path><path d="M295.78,288.2a4.59,4.59,0,0,1,0-1.2,20.57,20.57,0,0,1,.59-3.25,22.75,22.75,0,0,1,14.13-15.56,20.09,20.09,0,0,1,3.17-.9,5.1,5.1,0,0,1,1.2-.15c0,.1-1.68.36-4.23,1.39a23.66,23.66,0,0,0-13.91,15.32C296,286.49,295.88,288.22,295.78,288.2Z" style="fill:#263238"></path><path d="M319.32,376.49a2.77,2.77,0,0,1-.32.26l-1,.73-3.75,2.74-13.78,10-.16.12-.11-.18L283.86,364l-.13-.2.19-.13,15-10.79,18.27-13.14-.08.31-15.89-32.23-4.55-9.33-1.2-2.49c-.12-.27-.22-.49-.3-.65l-.09-.23a1.12,1.12,0,0,1,.13.21l.34.63,1.26,2.46c1.11,2.18,2.69,5.32,4.68,9.26l16.07,32.15.09.19-.17.12-18.25,13.16-15,10.77.06-.33,16.28,26.17-.28-.05,13.88-9.82,3.81-2.66,1-.68A2.1,2.1,0,0,1,319.32,376.49Z" style="fill:#263238"></path><g style="opacity:0.2"><polygon points="278.3 279.92 272.76 279.74 273.92 285.35 248.96 291.69 272.37 283.25 271.54 277.54 278.3 279.92"></polygon></g><path d="M229.53,457.92a4.08,4.08,0,0,1,0-.77c0-.55.06-1.28.09-2.21.1-2,.24-4.75.42-8.18.4-7,.95-16.62,1.57-27.48l.06.18a18.39,18.39,0,0,1-2.31-4.29,55.24,55.24,0,0,1-2.92-12.34c-.53-4-.81-7.73-1-11.15-.32-6.83-.2-12.32,0-15.7v-.11h.11l3,.16.76.06.26,0-.26,0h-.76l-3-.06.11-.1c-.07,3.37-.11,8.86.26,15.67.19,3.41.49,7.15,1,11.1A55.38,55.38,0,0,0,229.84,415a17.77,17.77,0,0,0,2.23,4.16l.06.08v.1c-.69,10.85-1.3,20.48-1.74,27.46-.25,3.43-.44,6.2-.58,8.17-.07.93-.13,1.66-.18,2.21A5.12,5.12,0,0,1,229.53,457.92Z" style="fill:#263238"></path><path d="M291.58,276.52l-1.35-.57c0-.07,3-7.32,6-15,1.18-3.05,1.6-5.59,1.26-7.56a3.5,3.5,0,0,0-3.55-2.85l-.92-1.32a5.27,5.27,0,0,1,5.92,3.92c.38,2.23-.07,5-1.34,8.34C294.64,269.18,291.61,276.44,291.58,276.52Z" style="fill:#455a64"></path><path d="M293.77,293.46l-1.87-.72c1.53-3.94,3.62-10.92,2.72-12.88a5.75,5.75,0,0,0-4-2.65,6.72,6.72,0,0,0-5.85,1.2c-2.14,1.81-5.36,8.19-6.42,10.49l-1.82-.84c.16-.35,4-8.72,7-11.18a8.71,8.71,0,0,1,7.58-1.62,7.64,7.64,0,0,1,5.39,3.77C298,282.33,294.48,291.63,293.77,293.46Z" style="fill:#455a64"></path><path d="M273.62,323.89c-2.31,0-4.57-1.23-6.74-3.68l.74-.67c2.4,2.7,4.86,3.77,7.31,3.2,10-2.35,17.57-30.07,17.65-30.35l1,.26c-.31,1.17-7.83,28.58-18.38,31.06A6.75,6.75,0,0,1,273.62,323.89Z" style="fill:#263238"></path><path d="M268.8,321.35h0a1.2,1.2,0,0,1-1.56.11l-2.17-1.61a1.43,1.43,0,0,1-.4-2h0a1.43,1.43,0,0,1,2.21-.22l1.94,2A1.2,1.2,0,0,1,268.8,321.35Z" style="fill:#263238"></path><path d="M277.86,324.8c-3.08,0-5.37-1-6.81-3-6.13-8.6,5.43-32.48,5.93-33.5l.9.44c-.12.24-11.8,24.36-6,32.48,1.51,2.11,4.16,3,7.88,2.49l.13,1A16.09,16.09,0,0,1,277.86,324.8Z" style="fill:#263238"></path><path d="M277.68,324.26h0a1.2,1.2,0,0,0,1.09,1.11l2.69.22a1.43,1.43,0,0,0,1.62-1.23h0a1.43,1.43,0,0,0-1.51-1.62l-2.8.24A1.19,1.19,0,0,0,277.68,324.26Z" style="fill:#263238"></path><circle cx="229.57" cy="300.82" r="7.83" transform="translate(-98.02 111.4) rotate(-22.61)" style="fill:#263238"></circle><circle cx="229.57" cy="300.82" r="7.83" transform="translate(-98.02 111.4) rotate(-22.61)" style="fill:#263238"></circle><path d="M235.36,300.82a5.79,5.79,0,1,1-5.79-5.79A5.78,5.78,0,0,1,235.36,300.82Z" style="fill:#e0e0e0"></path><path d="M232.79,293.76l-1.3-.67c.66-1.28,16.14-31.39,17.07-32.75.16-.24.36-.58.58-.95a21.41,21.41,0,0,1,1.55-2.33c1.56-1.93,3.42-3.71,5.65-4.11l-1.3,2.1c-1.19.46-1.82,1.21-3.21,2.93a20.33,20.33,0,0,0-1.43,2.17c-.24.4-.45.75-.63,1C249,262.23,237.27,285.05,232.79,293.76Z" style="fill:#455a64"></path></g><g id="freepik--character-3--inject-6"><path d="M402.79,198.54l.75,60.06c.13,10.21-1.77,25.24-17.93,24.71h0c-14-1.52-17.7-14.76-17.8-24.29-.06-4.53-.11-8.3-.14-8.76,0,0-15.31-1.25-16.6-16.37-.63-7.31-.69-22.46-.59-36.17a28.27,28.27,0,0,1,26.22-28l1.46-.11C394,169.42,403,182.72,402.79,198.54Z" style="fill:#ffbe9d"></path><path d="M367.67,250.26A36.66,36.66,0,0,0,386.94,243s-4,11.4-19.2,11.14Z" style="fill:#eb996e"></path><path d="M376.33,203.92c.3.3,2.05-1.1,4.58-1.17s4.43,1.17,4.7.85c.13-.15-.19-.71-1-1.29a6.45,6.45,0,0,0-3.77-1.07,6.12,6.12,0,0,0-3.63,1.33C376.44,203.2,376.19,203.78,376.33,203.92Z" style="fill:#263238"></path><path d="M378.92,209.12A2,2,0,0,0,381,211a2,2,0,0,0,2-2,2,2,0,0,0-2.12-1.92A2,2,0,0,0,378.92,209.12Z" style="fill:#263238"></path><path d="M370,221.54c0-.14-1.46-.28-3.83-.41-.6,0-1.17-.09-1.3-.49a3,3,0,0,1,.27-1.79q.67-2.22,1.43-4.65c2-6.62,3.34-12,3.08-12.12s-2.08,5.23-4.05,11.84l-1.35,4.68a3.4,3.4,0,0,0-.14,2.35,1.51,1.51,0,0,0,1,.8,4.11,4.11,0,0,0,1,.06A15.17,15.17,0,0,0,370,221.54Z" style="fill:#263238"></path><path d="M377.41,194.39c.25.56,2.27.14,4.7.27s4.43.66,4.71.12c.12-.26-.25-.78-1.08-1.28a7.67,7.67,0,0,0-3.55-1,7.5,7.5,0,0,0-3.62.71C377.72,193.64,377.31,194.12,377.41,194.39Z" style="fill:#263238"></path><path d="M353.35,199.09c.27.45,2.25-.05,4.64-.13s4.39.23,4.64-.24c.11-.23-.29-.64-1.12-1a8.38,8.38,0,0,0-3.54-.58,8.68,8.68,0,0,0-3.53.87C353.62,198.43,353.24,198.87,353.35,199.09Z" style="fill:#263238"></path><path d="M402.38,209.83c.25-.13,10.17-3.83,10.59,6.54s-10.07,8.66-10.1,8.36S402.38,209.83,402.38,209.83Z" style="fill:#ffbe9d"></path><path d="M405.88,220.67s.18.12.49.25a1.88,1.88,0,0,0,1.36,0c1.07-.45,1.93-2.22,1.9-4.1a6,6,0,0,0-.61-2.56,2.07,2.07,0,0,0-1.42-1.33.9.9,0,0,0-1,.54c-.13.29-.06.5-.11.52s-.23-.17-.16-.6a1.11,1.11,0,0,1,.38-.67,1.35,1.35,0,0,1,1-.3,2.54,2.54,0,0,1,1.95,1.53,6.13,6.13,0,0,1,.74,2.86c0,2.1-1,4.1-2.45,4.59a1.9,1.9,0,0,1-1.66-.21C405.91,220.92,405.84,220.69,405.88,220.67Z" style="fill:#eb996e"></path><path d="M372.44,228.72c-.12-.26,1.91-.87,3.34-2.78a11.47,11.47,0,0,0,1.44-2.71c.3-.75.53-1.22.64-1.19s.08.55-.09,1.36a7.61,7.61,0,0,1-1.33,3,6.26,6.26,0,0,1-2.65,2C373,228.79,372.46,228.81,372.44,228.72Z" style="fill:#263238"></path><path d="M416.17,193c-2.17-3.65-2.67-8-3.85-12.1s-3.45-8.31-7.46-9.74l-.09,0c-3.59-1.44-8-1.46-11,1-.73-5.39-5.46-9.65-10.72-11s-13.7-.55-18.74,1.48c-3.9,1.57-7.67,4.79-12.26,9.51a50.74,50.74,0,0,0-5.29,6.41l-4.57,14.13,3.92,7.41a14.19,14.19,0,0,0,.77,1.5v0l3.53,15.61c.23-4.26-.08-19.06.14-23.32a23.74,23.74,0,0,0,16.92-7.82c2.33-2.57,4.15-5.8,7.26-7.34,4-2,8.79-.54,13,.93l-.18-.16a18.85,18.85,0,0,1,5.86,4.23,59,59,0,0,0,2.55,25c.4,1.21,1.48,3.7,2.67,4.16,2.32.9,2.95-1.47,4.35-2.73,1-.93,2.57-1,4.24-1a92.7,92.7,0,0,0,2.85-10.76,9.42,9.42,0,0,0,4.35.29l-1.34-3.2a5,5,0,0,0,1.86.84,1.69,1.69,0,0,0,1.77-.77C417.15,194.72,416.62,193.81,416.17,193Z" style="fill:#263238"></path><path d="M389,174a13.58,13.58,0,0,1,1.52,1.39,10.82,10.82,0,0,1,2.32,5,19,19,0,0,1,.39,3.84c0,1.4-.11,2.89-.22,4.46a40.33,40.33,0,0,0-.11,5,17.1,17.1,0,0,0,.34,2.62,5.43,5.43,0,0,0,1.07,2.53,2.27,2.27,0,0,0,2.13.72,3.39,3.39,0,0,0,1.92-1.08,7.79,7.79,0,0,0,1.46-3.85l-.32,0a12.71,12.71,0,0,0,1.84,3.17,4.55,4.55,0,0,0,2.95,1.6,3,3,0,0,0,1.56-.27,2.61,2.61,0,0,0,1.06-1,2.68,2.68,0,0,0,.32-1.34,1.86,1.86,0,0,0-.49-1.17l-.16.14a9.86,9.86,0,0,0,3.25,2.44c.43.19.77.31,1,.39a1.48,1.48,0,0,0,.36.09l-.34-.15c-.23-.09-.56-.23-1-.44a10,10,0,0,1-3.14-2.47l-.16.14a1.94,1.94,0,0,1,.1,2.25,2.28,2.28,0,0,1-1,.92,2.61,2.61,0,0,1-1.42.23,4.24,4.24,0,0,1-2.73-1.52,12.6,12.6,0,0,1-1.77-3.1l-.22-.49-.1.53a7.5,7.5,0,0,1-1.39,3.67,3,3,0,0,1-1.72,1,1.93,1.93,0,0,1-1.81-.6,5.26,5.26,0,0,1-1-2.38,17.25,17.25,0,0,1-.33-2.56,39.91,39.91,0,0,1,.09-4.92c.1-1.57.2-3.07.18-4.48a18.57,18.57,0,0,0-.44-3.89,10.78,10.78,0,0,0-2.46-5.07A6.17,6.17,0,0,0,389,174Z" style="fill:#455a64"></path><path d="M342.25,188.73l.12.1.38.28a5.59,5.59,0,0,0,.64.41,7.74,7.74,0,0,0,.92.48,13.33,13.33,0,0,0,6.47,1.16,17,17,0,0,0,9.13-3.37,29.58,29.58,0,0,0,7.84-9c1.1-1.84,2-3.71,3-5.45a20,20,0,0,1,3.38-4.6,10.22,10.22,0,0,1,4.36-2.65,7.3,7.3,0,0,1,2.3-.26,8.32,8.32,0,0,1,2.1.4,8.74,8.74,0,0,1,3.15,1.9,8.93,8.93,0,0,1,1.71,2.21,10.07,10.07,0,0,1,.78,2.27s0-.05,0-.16,0-.27-.07-.46a7.93,7.93,0,0,0-.58-1.71,8.36,8.36,0,0,0-1.69-2.29,8.75,8.75,0,0,0-3.21-2,8,8,0,0,0-2.17-.44,7.58,7.58,0,0,0-2.39.25,10.64,10.64,0,0,0-4.51,2.69,20.27,20.27,0,0,0-3.45,4.67c-1,1.75-1.9,3.62-3,5.43a29.54,29.54,0,0,1-7.73,9,17,17,0,0,1-9,3.39,13.53,13.53,0,0,1-6.4-1C343,189.24,342.28,188.68,342.25,188.73Z" style="fill:#455a64"></path><path d="M353.24,204.87c.3.31,2.05-1.1,4.58-1.17s4.42,1.18,4.69.85c.13-.14-.18-.7-1-1.28a6.34,6.34,0,0,0-3.76-1.07,6.18,6.18,0,0,0-3.64,1.32C353.34,204.16,353.09,204.73,353.24,204.87Z" style="fill:#263238"></path><path d="M356.72,209.12a2,2,0,0,0,2.12,1.92,2,2,0,0,0,2-2,2,2,0,0,0-2.12-1.92A2,2,0,0,0,356.72,209.12Z" style="fill:#263238"></path><path d="M348.06,176.89c-1.27,1.72-3.23,3.29-5.35,3.09a15.84,15.84,0,0,1-2.26-.63c-.74.45-.53,3,0,3.68a13.65,13.65,0,0,0,1.61,1.62c-2.47,1.37-4.75.74-7.41-.19a13,13,0,0,0,7.85,10.32,4.57,4.57,0,0,0,4.18,0,5.27,5.27,0,0,0,1.79-3.28,56.87,56.87,0,0,0,1.69-13.93Z" style="fill:#263238"></path><path d="M360.54,261.91l7-3.73s7.41,11,18.41,9.91,18-10.82,18-10.82l7,3.55-24,39.37Z" style="fill:#455a64"></path><path d="M439.41,376.45l-8.11-55.52,5.95-52.13-27.69-9.68-22.66,37L361,260.27,345.63,267c-13.39,5.87-25.48,18.55-28.25,32.9,0,.19-.07.38-.11.57-3.55,19.22.38,46.62.38,46.62l26.26-11.62-2.12-9.27,5,21.16s-21.45,78.18-18.4,103.81c0,0,40.49,9,77.78,2.89s47.41-7.84,47.41-7.84Z" style="fill:#E7BB41"></path><path d="M437.25,268.8s16.11,14,17.89,33.45,5.07,36.83,5.07,36.83l-32.47,3.47s-.76-13.34,0-14.15,6.09-40.84,6.09-40.84Z" style="fill:#E7BB41"></path><g style="opacity:0.2"><path d="M340,374.77l-1.17,5.37,19.68,7c7,2.5,14.06,5,21.4,6.27,13.45,2.31,27.24.31,40.75-1.69,7.54-1.11,16-2.8,20.16-9.2A369.1,369.1,0,0,1,340,374.77Z"></path></g><path d="M320.06,346c.25.27,9,25.65,14.08,30.18s34.5,2.94,46.93-1.6,38.83-10.05,38.83-10.05l-4-20.47s-9.66,1-22.36,3c-4.6.75-46.68.27-46.68.27l-2.91-11.89Z" style="fill:#455a64"></path><path d="M458.48,339.27c-.07,0-.8,33.44-4.35,37.72s-16,9.34-25.36,10.41-66.47-1.53-74.84-8.51l33-23,33.62,8.3,9.41-4.05.86-17.92Z" style="fill:#455a64"></path><path d="M428.34,392.27a4.31,4.31,0,0,1-.45.56l-1.36,1.55c-.59.68-1.33,1.49-2.23,2.39s-1.88,2-3.07,3-2.45,2.31-3.9,3.51-3,2.49-4.68,3.8a111.55,111.55,0,0,1-11.48,7.64,113.62,113.62,0,0,1-12.39,6.09c-2,.76-3.84,1.53-5.64,2.11-.89.3-1.75.61-2.58.87l-2.42.71c-1.53.47-2.95.79-4.18,1.09s-2.31.54-3.2.7l-2,.37a5.23,5.23,0,0,1-.71.1,3.43,3.43,0,0,1,.69-.2l2-.47c.88-.19,1.94-.44,3.17-.78s2.63-.67,4.15-1.17l2.39-.73c.83-.27,1.68-.59,2.57-.9,1.79-.59,3.64-1.37,5.6-2.15a110.13,110.13,0,0,0,23.76-13.66c1.67-1.29,3.27-2.51,4.69-3.75s2.74-2.37,3.92-3.45,2.21-2.1,3.12-3,1.68-1.66,2.29-2.32l1.43-1.48A4.11,4.11,0,0,1,428.34,392.27Z" style="fill:#263238"></path><path d="M417.54,261.91l-.13.27L417,263l-1.62,3-6.08,11L389,313.16l-.2.36-.24-.33-.78-1.07-25-34.26-7.53-10.42-2-2.84c-.21-.31-.38-.56-.52-.75a2,2,0,0,1-.16-.27,1.76,1.76,0,0,1,.21.24c.14.18.32.42.56.71l2.1,2.79,7.66,10.32,25.13,34.17.78,1.07-.44,0c8-14.15,15.19-26.91,20.42-36.16l6.21-10.89,1.71-2.94.46-.76C417.47,262,417.53,261.9,417.54,261.91Z" style="fill:#263238"></path><path d="M398.18,345a2.37,2.37,0,0,1-.05-.62c0-.47,0-1.06-.05-1.78,0-1.62-.05-3.84-.08-6.55s0-6.07-.06-9.71c0-1.83,0-3.75,0-5.73,0-1,0-2,0-3v-1.76a.6.6,0,0,1,.12-.32.68.68,0,0,1,.54-.24l.8,0c8.45-.15,16.08,0,21.61.1l6.54.15,1.78.08a2.5,2.5,0,0,1,.62.06,3.69,3.69,0,0,1-.62,0l-1.78,0H421c-5.53,0-13.18-.1-21.59.05l-.78,0c-.18,0-.12,0-.16,0a.08.08,0,0,0,0,.05v4.76c0,2,0,3.9,0,5.73,0,3.64,0,6.92-.06,9.71s-.06,4.93-.08,6.55l0,1.78A2.37,2.37,0,0,1,398.18,345Z" style="fill:#263238"></path><path d="M430.79,342.23a1.43,1.43,0,0,1,0,.31c0,.24,0,.54,0,.92,0,.84-.07,2-.11,3.5-.13,3.09-.31,7.46-.53,12.82v.13l-.13,0c-3.8,1.5-8.21,3.18-13.07,4.9s-10.22,3.31-15.84,4.84c-12.85,3.43-24.72,5.47-33.29,6.94l-10.16,1.7-2.76.44-.73.1-.24,0s.08,0,.23-.07l.72-.15,2.75-.54,10.13-1.86c8.55-1.56,20.39-3.66,33.21-7.08,5.62-1.53,11-3.09,15.82-4.8s9.27-3.35,13.09-4.81l-.13.18c.29-5.35.53-9.73.7-12.81.09-1.48.17-2.65.22-3.5,0-.37.05-.67.07-.91A1.05,1.05,0,0,1,430.79,342.23Z" style="fill:#263238"></path><path d="M416.24,345.71a82.11,82.11,0,0,1,9.56-.69,27.37,27.37,0,0,1,4.82.68l-.69,14.45L419.8,364.2Z" style="fill:#ffbe9d"></path><path d="M333.67,292.77a10,10,0,0,1,.48,1.71c.29,1.19.67,2.78,1.13,4.7,1,4.05,2.23,9.5,3.64,15.53s2.77,11.54,3.76,15.5l1.18,4.69a10.25,10.25,0,0,1,.38,1.73,11.65,11.65,0,0,1-.57-1.68c-.35-1.09-.8-2.68-1.35-4.65-1.08-3.94-2.47-9.41-3.91-15.47s-2.65-11.57-3.49-15.57c-.4-1.94-.72-3.54-1-4.74A13.37,13.37,0,0,1,333.67,292.77Z" style="fill:#263238"></path><path d="M430.08,323a5.66,5.66,0,0,1-1.26.13c-.81.06-2,.11-3.42.17-2.9.1-6.9.18-11.32.18s-8.42-.1-11.31-.21c-1.45-.06-2.62-.12-3.43-.17a5.92,5.92,0,0,1-1.25-.14,5.23,5.23,0,0,1,1.26-.06h3.43l11.3.06,11.31,0h3.43A5.48,5.48,0,0,1,430.08,323Z" style="fill:#263238"></path><path d="M371.48,347.49s-.25-.28-.63-.84l-1.55-2.37c-1.31-2-3.16-4.74-5.33-7.68s-4.23-5.51-5.76-7.36l-1.8-2.18a3.82,3.82,0,0,1-.62-.84,3.71,3.71,0,0,1,.77.7c.47.48,1.13,1.19,1.93,2.08,1.6,1.79,3.72,4.35,5.9,7.3s4,5.73,5.22,7.78c.62,1,1.1,1.88,1.42,2.47A4.26,4.26,0,0,1,371.48,347.49Z" style="fill:#263238"></path><path d="M377.22,347.76a12.31,12.31,0,0,1-2.47-4.13,12.51,12.51,0,0,1-1.21-4.66c.15,0,.67,2,1.69,4.46S377.35,347.68,377.22,347.76Z" style="fill:#263238"></path><path d="M393.31,305a2.27,2.27,0,0,1-.37-.43l-1-1.27-3.53-4.75L376.93,282.8l-11.37-15.86-3.4-4.85-.9-1.33a2.56,2.56,0,0,1-.29-.49,2.27,2.27,0,0,1,.37.43l1,1.27,3.53,4.75,11.5,15.77,11.37,15.86,3.4,4.85.9,1.33A2.56,2.56,0,0,1,393.31,305Z" style="fill:#263238"></path><path d="M407.06,259.12a2.18,2.18,0,0,1-.16.52,12.72,12.72,0,0,1-.6,1.47,19.17,19.17,0,0,1-3.25,4.82,22.62,22.62,0,0,1-6.95,5.1,28.42,28.42,0,0,1-4.81,1.74,29,29,0,0,1-5.44.77,23.3,23.3,0,0,1-10.34-2.08,24.16,24.16,0,0,1-7.12-4.87,22,22,0,0,1-3.58-4.57,13.21,13.21,0,0,1-.73-1.4,2.68,2.68,0,0,1-.22-.51,28.5,28.5,0,0,0,4.79,6.22,24.42,24.42,0,0,0,7.06,4.69,23.26,23.26,0,0,0,10.12,2,26.2,26.2,0,0,0,10.07-2.42,23,23,0,0,0,6.88-4.92,20.8,20.8,0,0,0,3.34-4.66C406.74,259.81,407,259.1,407.06,259.12Z" style="fill:#263238"></path><g style="opacity:0.2"><path d="M353.93,378.89c26.69,2.23,54.79,2.82,76.87-19.3-23.23,9.53-52.05,15.6-76.87,19.3"></path></g><g style="opacity:0.2"><path d="M430.73,345.66c-3.65-3.32-4.17-8.8-4.06-13.73.19-8.25,2.19-17.42,4.49-25.34-.47,14.06-1.52,26.44-.59,39.12"></path></g><path d="M346.82,347.36c0,.07-.48.4-1.28,1a11.56,11.56,0,0,0-2.66,2.73,26.46,26.46,0,0,0-1.8,3.42,5.24,5.24,0,0,1-.78,1.43,4.88,4.88,0,0,1,.44-1.57,16.77,16.77,0,0,1,1.71-3.57,9.32,9.32,0,0,1,2.88-2.74A4,4,0,0,1,346.82,347.36Z" style="fill:#263238"></path><polygon points="449.47 442.3 451.94 458.09 330.52 458.09 331.95 446.22 449.47 442.3" style="fill:#E7BB41"></polygon><path d="M453,446a1.19,1.19,0,0,1-.31.11l-.91.26-3.54,1c-1.54.43-3.43.92-5.64,1.41s-4.71,1.14-7.51,1.67l-4.38.89c-1.53.3-3.13.55-4.78.84-3.29.61-6.84,1.08-10.58,1.62-7.47.95-15.73,1.74-24.42,2.14s-17,.29-24.52,0c-3.77-.21-7.34-.37-10.68-.7-1.67-.14-3.29-.25-4.83-.42l-4.45-.5c-2.83-.29-5.38-.7-7.62-1s-4.17-.62-5.74-.91l-3.61-.65-.93-.18-.32-.08.33,0,.94.13,3.63.56c1.57.25,3.49.55,5.74.83s4.79.67,7.62.93l4.45.47c1.54.16,3.16.25,4.82.39,3.34.31,6.91.45,10.67.65,7.52.28,15.8.34,24.48,0s16.92-1.17,24.38-2.1c3.73-.52,7.28-1,10.57-1.57,1.65-.28,3.25-.52,4.77-.81l4.39-.85c2.8-.51,5.31-1.11,7.52-1.59s4.1-.93,5.65-1.32l3.56-.87.93-.21A2.55,2.55,0,0,1,453,446Z" style="fill:#263238"></path><path d="M434.1,284.5a2.64,2.64,0,0,1-.05.62c-.06.45-.14,1-.25,1.76-.23,1.52-.54,3.73-.91,6.47-.73,5.46-1.58,13-2.08,21.44s-.57,16-.5,21.54c0,2.76.09,5,.13,6.53,0,.73,0,1.32,0,1.78a2.52,2.52,0,0,1,0,.62,4.35,4.35,0,0,1-.08-.62c0-.46-.08-1.05-.13-1.77-.11-1.54-.21-3.77-.3-6.53-.17-5.52-.15-13.16.35-21.58s1.41-16,2.24-21.47c.41-2.73.78-4.93,1.07-6.45.14-.71.26-1.29.35-1.74A2.33,2.33,0,0,1,434.1,284.5Z" style="fill:#263238"></path></g></svg>
